<?xml version="1.0" standalone="no"?>
<!DOCTYPE svg PUBLIC "-//W3C//DTD SVG 20010904//EN"
 "http://www.w3.org/TR/2001/REC-SVG-20010904/DTD/svg10.dtd">
<svg version="1.0" xmlns="http://www.w3.org/2000/svg"
 width="920.000000pt" height="768.000000pt" viewBox="0 0 920.000000 768.000000"
 preserveAspectRatio="xMidYMid meet">
<metadata>
Created by potrace 1.16, written by Peter Selinger 2001-2019
</metadata>
<g transform="translate(0.000000,768.000000) scale(0.100000,-0.100000)"
fill="#000000" stroke="none">
<path d="M2579 6065 c-96 -35 -166 -103 -200 -195 -19 -50 -20 -73 -17 -285 3
-211 5 -234 25 -277 27 -60 95 -127 158 -159 l50 -24 1985 -3 c1760 -2 1990 0
2037 13 74 22 151 87 188 160 l30 58 3 232 c3 216 2 234 -18 288 -30 80 -106
157 -183 185 l-58 22 -1982 -1 c-1622 0 -1989 -3 -2018 -14z"/>
<path d="M2583 4466 c-63 -20 -110 -53 -154 -108 -61 -78 -69 -120 -69 -364 0
-191 2 -219 21 -269 25 -68 99 -147 166 -178 l48 -22 2005 0 2005 0 57 28 c71
35 131 101 158 175 20 52 21 73 18 287 -3 228 -3 230 -31 287 -32 65 -89 121
-156 152 l-46 21 -1990 2 c-1617 1 -1998 -1 -2032 -11z"/>
<path d="M2578 2865 c-57 -21 -122 -70 -157 -117 -53 -72 -61 -117 -61 -354 0
-194 2 -219 21 -271 26 -68 92 -138 164 -173 l50 -25 1992 -3 1992 -2 58 22
c77 28 153 105 183 185 20 54 21 72 18 288 -3 215 -4 233 -26 280 -31 66 -109
139 -178 165 -55 20 -63 20 -2037 19 -1654 0 -1988 -3 -2019 -14z"/>
</g>
</svg>
