<?xml version="1.0" standalone="no"?>
<!DOCTYPE svg PUBLIC "-//W3C//DTD SVG 20010904//EN"
 "http://www.w3.org/TR/2001/REC-SVG-20010904/DTD/svg10.dtd">
<svg version="1.0" xmlns="http://www.w3.org/2000/svg"
 width="360.000000pt" height="360.000000pt" viewBox="0 0 360.000000 360.000000"
 preserveAspectRatio="xMidYMid meet">

<g transform="translate(0.000000,360.000000) scale(0.100000,-0.100000)"
fill="#000000" stroke="none">
<path d="M1480 2389 c-96 -12 -214 -74 -281 -146 -187 -205 -176 -501 25 -691
177 -168 449 -174 644 -14 l42 35 275 -183 c151 -101 277 -181 278 -179 2 2
19 26 37 52 27 41 30 51 19 62 -8 7 -126 88 -264 180 -137 93 -254 171 -259
176 -4 4 2 33 14 66 61 161 23 350 -97 483 -111 124 -265 180 -433 159z m138
-109 c119 -22 221 -99 274 -208 30 -61 33 -74 33 -162 0 -84 -3 -102 -29 -157
-35 -76 -113 -153 -193 -191 -50 -23 -71 -27 -153 -27 -88 0 -101 3 -162 33
-152 75 -240 245 -208 405 30 154 135 266 285 303 63 16 90 16 153 4z"/>
</g>
</svg>
